<?xml version="1.0" encoding="UTF-8"?>
<svg id="Calque_2" data-name="Calque 2" xmlns="http://www.w3.org/2000/svg" viewBox="0 0 422.26 421.15">
  <defs>
    <style>
      .cls-1 {
        fill: #0c6962;
      }

      .cls-2 {
        fill: #07a88d;
      }
    </style>
  </defs>
  <g id="Calque_1-2" data-name="Calque 1">
    <g>
      <path class="cls-2" d="M34.75,255.6c5.91,22.29,21.14,53.56,36.54,70.79,7.83,8.76,16.12,17.49,25.17,25.08,22.27,18.67,48.62,30.89,76.51,37.23,18.47,4.2,57.43,4.29,75.19.27,48.77-11.03,84.53-36.66,113.68-77.05,3.7-5.12,6.32-10.6,9.21-16.2,9.37-18.16,17.21-36.48,19.32-57.12,2.1-20.58,2.22-50.43-2.61-69.95-4.13-16.72-10.74-31.57-18.97-47.57l-37.35,88.87-36.3,86.08-22.53.86c-6.45.25-12.12-.52-17.29-2.17l12.62-30.97,4.92-12.06-37.83-.44c2.93-9.21,6.57-17.1,10.81-25.81l3.78-7.76,37.87.05c1.44-2.9,2.97-5.64,3.92-8.01l5.02-12.64,9.33-22.94,37.16-88.94c-9.33-5.72-19.82-17.78-25.97-21.78-22.03-14.33-45.16-26.32-71.2-30.7-6.73-1.13-13.42-1.82-20.21-2.6-39.75-4.56-95.64,11.54-124.45,36.73l-15.15,13.25c-11.7,10.23-8.27,10.53-13.95,13.93-2.03,1.21-11.41-23.9-12.84-28.35,4.86-6.88,11.73-11.99,17.83-17.23,23.43-20.14,59.28-37.37,89.6-43.44,19.49-3.9,40.56-6.41,60.5-4.09,11.83,1.38,23.14,2.72,34.76,5.62,71.32,17.8,128.24,71.13,150.18,141.02,5.21,16.6,6.91,27.3,8.65,44.04,2.16,20.68,2.09,18.54.02,39.11-2.78,27.72-7.66,44.43-18.87,69.58-29.81,66.9-99.24,115.2-172.06,120.38-12.97.92-25.83.47-38.56-.17-30.54-1.54-72.25-16.41-96.97-34.12-7.99-5.72-15.37-10.68-23.03-17.45C22.38,325.78-5.3,261.27.85,196.23l1.06-11.22c3.01-31.86,19.31-73.52,40.48-100.34l33.57,77.56,36.22,83.24c1.63-.19,3.97-2.36,4.75-4.15l15.94-36.37,8.4-19.6,5.51-11.99,3.07-6.34c.87-1.79,31.62-1.74,39.21.89l-33.62,79.2c-7.73,18.2-11.4,33.79-25.71,45.25-13.95,11.17-36.23,2.67-44.82-16.56l-8.24-18.45-40.15-92.27c-2.45,3.29-3.57,6.54-4.04,10.3-2.98,23.79-3.75,57.55,2.26,80.23Z"/>
      <path class="cls-1" d="M209.74,278.36c-7.06,14.86-20.45,19.74-34.94,17.39-7.39-1.2-16.62-8.45-20.37-16.84l20.22-44.99,7.79,14.51,35.16-82c12.95-.89,25.75-.8,41.11.14-15.69,38.57-31.43,74.89-48.96,111.8Z"/>
    </g>
  </g>
</svg>