<?xml version="1.0" encoding="UTF-8"?>
<svg id="Calque_2" data-name="Calque 2" xmlns="http://www.w3.org/2000/svg" viewBox="0 0 740.26 375.41">
  <defs>
    <style>
      .cls-1 {
        fill: #0c6962;
      }

      .cls-2 {
        fill: #07a88d;
      }
    </style>
  </defs>
  <g id="Calque_1-2" data-name="Calque 1">
    <g>
      <g>
        <path class="cls-2" d="M248.77,175.87c4.07,15.33,14.55,36.85,25.14,48.7,5.39,6.03,11.09,12.03,17.32,17.26,15.32,12.85,33.45,21.26,52.65,25.62,12.71,2.89,39.52,2.95,51.73.19,33.56-7.59,58.16-25.23,78.22-53.01,2.54-3.52,4.35-7.29,6.34-11.15,6.45-12.49,11.84-25.1,13.29-39.3,1.45-14.16,1.52-34.7-1.8-48.13-2.84-11.51-7.39-21.72-13.05-32.73l-25.7,61.15-24.98,59.23-15.5.59c-4.44.17-8.34-.36-11.9-1.5l8.68-21.31,3.38-8.3-26.03-.3c2.02-6.34,4.52-11.77,7.43-17.76l2.6-5.34,26.06.03c.99-1.99,2.04-3.88,2.69-5.51l3.46-8.7,6.42-15.78,25.57-61.2c-6.42-3.94-13.64-12.23-17.87-14.98-15.16-9.86-31.08-18.11-48.99-21.12-4.63-.78-9.23-1.25-13.91-1.79-27.35-3.14-65.81,7.94-85.63,25.27l-10.42,9.11c-8.05,7.04-5.69,7.24-9.6,9.58-1.4.83-7.85-16.44-8.83-19.51,3.34-4.73,8.07-8.25,12.27-11.86,16.12-13.86,40.79-25.71,61.65-29.89,13.41-2.69,27.91-4.41,41.63-2.81,8.14.95,15.93,1.87,23.92,3.86,49.07,12.25,88.23,48.94,103.33,97.03,3.59,11.42,4.75,18.79,5.95,30.3,1.49,14.23,1.44,12.76.01,26.91-1.91,19.07-5.27,30.57-12.98,47.87-20.51,46.03-68.29,79.27-118.39,82.83-8.93.63-17.77.32-26.53-.12-21.01-1.06-49.71-11.29-66.72-23.47-5.5-3.94-10.58-7.35-15.85-12-33.59-29.67-52.64-74.06-48.41-118.81l.73-7.72c2.07-21.92,13.28-50.59,27.85-69.04l23.1,53.36,24.92,57.28c1.12-.13,2.73-1.62,3.27-2.86l10.97-25.02,5.78-13.48,3.79-8.25,2.11-4.37c.6-1.23,21.75-1.2,26.98.61l-23.14,54.49c-5.32,12.52-7.84,23.25-17.69,31.13s-24.93,1.84-30.84-11.4l-5.67-12.69-27.63-63.49c-1.69,2.26-2.46,4.5-2.78,7.09-2.05,16.37-2.58,39.6,1.56,55.2Z"/>
        <path class="cls-1" d="M369.17,191.53c-4.86,10.22-14.07,13.58-24.04,11.97-5.08-.82-11.44-5.82-14.02-11.59l13.91-30.96,5.36,9.98,24.19-56.42c8.91-.61,17.72-.55,28.28.09-10.8,26.54-21.63,51.53-33.69,76.92Z"/>
      </g>
      <g>
        <path class="cls-1" d="M516.68,360.76c-6.24,9.9-17.01,14.21-27.93,14.27l-31.94.17.11-62.69,33.86.35c8.75.09,17.64,3.98,23.41,10.7,8.75,10.18,9.86,25.54,2.5,37.2ZM502.24,343.49c-.07-8.19-5.15-14.36-13.15-15.14-4.25-.42-8.67-.35-13.33-.35l-.11,31.58c5.59,0,10.34.21,14.81-.51,7.82-1.27,11.84-7.68,11.77-15.57Z"/>
        <path class="cls-1" d="M588.24,364.27c-6.39,7.42-16.11,10.74-25.44,10.79l-31.81.17v-62.72s33.44.34,33.44.34c10.2.1,19.18,4.54,25.52,12.42,7.75,11.76,7.97,27.75-1.72,39ZM576.42,342.58c-.55-7.87-5.88-13.75-13.56-14.29-4.17-.29-7.98-.28-12.75-.31l-.17,31.61h11.11c9.34.01,16.07-7.16,15.38-17.01Z"/>
        <path class="cls-1" d="M736.87,358.76c-6.3,10.95-17.31,16.18-29.54,16.28l-31.06.26-.02-62.79,33.85.37c10.34.11,19.45,5.47,25.27,13.57,5.97,9.87,6.48,21.53,1.5,32.31ZM721.07,343.44c-.21-8.21-5.32-14.52-13.5-15.14-4.06-.31-8-.28-12.8-.31l-.11,31.45,10.16.24c9.38.22,16.51-6.26,16.25-16.24Z"/>
        <polygon class="cls-1" points="373.23 374.98 354.26 375.19 353.98 351.38 332.64 351.51 332.39 375.19 313.54 375.2 313.48 312.54 332.39 312.64 332.53 335.37 354.02 335.34 354.23 312.52 373.22 312.63 373.23 374.98"/>
        <path class="cls-1" d="M427.19,363.33h-24.62s-4.77,12.01-4.77,12.01l-19.42-.26,27.49-62.5,18.18-.05,27.64,62.48-19.77.36-4.73-12.03ZM421.22,348.76l-6.35-16.03-6.48,16.18,12.84-.14Z"/>
        <path class="cls-1" d="M646.27,363.4l-24.48-.16-5.05,11.95-19.25-.35,27.44-62.24,18.21-.05,27.54,62.33-19.55.54-4.85-12.01ZM640.25,348.82l-6.39-16.31-6.21,16.23,12.6.08Z"/>
        <g>
          <path class="cls-2" d="M84.2,313.09c2.55-.72,5.13-.64,7.98-.03l-20.86,62.01h-8.15s-17.13-49.72-17.13-49.72l-17.05,48.94c-1.99,1.47-6.22,1.26-8.5.26L0,313.26c2.62-.93,5.7-.94,8.33-.13l16.71,49.62,17.37-49.65c2.3-.62,5.13-.65,7.57-.24l17.17,49.95,17.05-49.73Z"/>
          <path class="cls-2" d="M266.2,359.13l-32.88-.11-7.11,15.42c-1.74,1.3-5.92,1.1-8.54-.09l27.86-60.99c1.81-1.17,5.79-1.15,8.21-.19l28.01,61.28c-2.94.87-5.61.97-8.43.7l-7.12-16.03ZM262.71,351.76l-13.07-29.14-13.08,29.26,26.15-.12Z"/>
          <path class="cls-2" d="M144.22,359.02l-33.2.09-6.75,15.81c-2.65.62-5.51.55-8.43-.65l27.82-60.97c2.13-1.13,5.82-1.07,8.18-.13l27.76,60.73c-1.75,1.72-5.84,1.79-8.37.89l-7-15.77ZM140.86,351.89l-13.15-29.38-13.1,29.3,26.25.08Z"/>
          <path class="cls-2" d="M208.75,342.06c2.06.01,1.81,7.08-.07,7.21l-29.87.23-.3,24.81c-2.19,1.35-6.17,1.12-8.1.27.34-3.2.63-5.53.63-8.51l-.02-53.52h42.32c.52,2.36.51,4.9.02,7.34l-34.62.07-.07,21.94,30.09.16Z"/>
        </g>
      </g>
    </g>
  </g>
</svg>