<?xml version="1.0" encoding="UTF-8"?>
<svg id="Calque_2" data-name="Calque 2" xmlns="http://www.w3.org/2000/svg" viewBox="0 0 802.9 68.27">
  <defs>
    <style>
      .cls-1 {
        fill: #0c6962;
      }

      .cls-2 {
        fill: #07a88d;
      }
    </style>
  </defs>
  <g id="Calque_1-2" data-name="Calque 1">
    <g>
      <path class="cls-1" d="M560.4,52.37c-6.77,10.73-18.45,15.41-30.3,15.47l-34.65.18.12-67.99,36.72.38c9.49.1,19.13,4.32,25.39,11.6,9.49,11.05,10.69,27.7,2.71,40.35ZM544.74,33.65c-.07-8.88-5.59-15.57-14.26-16.42-4.61-.45-9.41-.38-14.46-.38l-.12,34.26c6.06,0,11.22.23,16.07-.56,8.48-1.38,12.84-8.34,12.77-16.89Z"/>
      <path class="cls-1" d="M638.01,56.18c-6.93,8.05-17.47,11.65-27.59,11.71l-34.5.19V.05s36.27.37,36.27.37c11.07.11,20.8,4.93,27.68,13.47,8.4,12.76,8.64,30.09-1.86,42.3ZM625.2,32.66c-.6-8.53-6.38-14.91-14.71-15.5-4.52-.32-8.66-.31-13.83-.33l-.18,34.28h12.05c10.13.02,17.43-7.76,16.68-18.45Z"/>
      <path class="cls-1" d="M799.22,50.21c-6.83,11.88-18.78,17.55-32.04,17.66l-33.69.28-.02-68.1,36.72.4c11.21.12,21.09,5.93,27.4,14.72,6.47,10.7,7.03,23.36,1.63,35.04ZM782.08,33.59c-.23-8.91-5.77-15.75-14.64-16.42-4.41-.33-8.68-.31-13.88-.34l-.12,34.11,11.02.26c10.17.24,17.9-6.79,17.63-17.61Z"/>
      <polygon class="cls-1" points="404.81 67.8 384.24 68.03 383.94 42.21 360.78 42.34 360.51 68.03 340.07 68.04 340 .07 360.51 .19 360.67 24.84 383.98 24.81 384.2 .06 404.8 .18 404.81 67.8"/>
      <path class="cls-1" d="M463.34,55.16h-26.71s-5.17,13.02-5.17,13.02l-21.06-.29L440.22.11l19.71-.06,29.98,67.77-21.44.39-5.13-13.05ZM456.86,39.36l-6.89-17.39-7.03,17.55,13.92-.15Z"/>
      <path class="cls-1" d="M700.96,55.24l-26.56-.18-5.48,12.96-20.88-.38L677.81.13l19.75-.05,29.87,67.6-21.21.59-5.26-13.03ZM694.42,39.43l-6.93-17.69-6.73,17.6,13.66.09Z"/>
      <path class="cls-2" d="M91.32.68c2.77-.78,5.56-.7,8.66-.03l-22.62,67.26h-8.84S49.94,13.97,49.94,13.97l-18.49,53.08c-2.15,1.6-6.75,1.37-9.22.28L0,.86C2.84-.14,6.18-.16,9.04.73l18.12,53.82L46,.7C48.5.03,51.56-.01,54.21.43l18.62,54.18L91.32.68Z"/>
      <path class="cls-2" d="M288.72,50.61l-35.66-.12-7.72,16.73c-1.89,1.41-6.42,1.19-9.26-.1L266.3.97c1.97-1.27,6.28-1.25,8.91-.21l30.38,66.46c-3.18.94-6.08,1.05-9.14.76l-7.72-17.38ZM284.93,42.61l-14.17-31.61-14.19,31.74,28.36-.13Z"/>
      <path class="cls-2" d="M156.42,50.49l-36.01.1-7.32,17.15c-2.88.68-5.97.6-9.15-.7L134.11.91c2.31-1.22,6.31-1.16,8.87-.14l30.11,65.86c-1.89,1.86-6.33,1.94-9.08.97l-7.59-17.11ZM152.78,42.76l-14.26-31.86-14.21,31.78,28.47.08Z"/>
      <path class="cls-2" d="M226.41,32.09c2.24.01,1.97,7.68-.07,7.82l-32.4.25-.33,26.91c-2.38,1.47-6.69,1.22-8.78.29.37-3.47.68-5.99.68-9.23l-.02-58.05h45.9c.57,2.56.55,5.31.02,7.96l-37.55.08-.08,23.8,32.64.18Z"/>
    </g>
  </g>
</svg>