<?xml version="1.0" encoding="UTF-8"?>
<svg id="Calque_2" data-name="Calque 2" xmlns="http://www.w3.org/2000/svg" viewBox="0 0 740.26 505">
  <defs>
    <style>
      .cls-1 {
        fill: #0c6962;
      }

      .cls-2 {
        fill: #07a88d;
      }
    </style>
  </defs>
  <g id="Calque_1-2" data-name="Calque 1">
    <g>
      <g>
        <path class="cls-2" d="M248.77,175.87c4.07,15.33,14.55,36.85,25.14,48.7,5.39,6.03,11.09,12.03,17.32,17.26,15.32,12.85,33.45,21.26,52.65,25.62,12.71,2.89,39.52,2.95,51.73.19,33.56-7.59,58.16-25.23,78.22-53.01,2.54-3.52,4.35-7.29,6.34-11.15,6.45-12.49,11.84-25.1,13.29-39.3,1.45-14.16,1.52-34.7-1.8-48.13-2.84-11.51-7.39-21.72-13.05-32.73l-25.7,61.15-24.98,59.23-15.5.59c-4.44.17-8.34-.36-11.9-1.5l8.68-21.31,3.38-8.3-26.03-.3c2.02-6.34,4.52-11.77,7.43-17.76l2.6-5.34,26.06.03c.99-1.99,2.04-3.88,2.69-5.51l3.46-8.7,6.42-15.78,25.57-61.2c-6.42-3.94-13.64-12.23-17.87-14.98-15.16-9.86-31.08-18.11-48.99-21.12-4.63-.78-9.23-1.25-13.91-1.79-27.35-3.14-65.81,7.94-85.63,25.27l-10.42,9.11c-8.05,7.04-5.69,7.24-9.6,9.58-1.4.83-7.85-16.44-8.83-19.51,3.34-4.73,8.07-8.25,12.27-11.86,16.12-13.86,40.79-25.71,61.65-29.89,13.41-2.69,27.91-4.41,41.63-2.81,8.14.95,15.93,1.87,23.92,3.86,49.07,12.25,88.23,48.94,103.33,97.03,3.59,11.42,4.75,18.79,5.95,30.3,1.49,14.23,1.44,12.76.01,26.91-1.91,19.07-5.27,30.57-12.98,47.87-20.51,46.03-68.29,79.27-118.39,82.83-8.93.63-17.77.32-26.53-.12-21.01-1.06-49.71-11.29-66.72-23.47-5.5-3.94-10.58-7.35-15.85-12-33.59-29.67-52.64-74.06-48.41-118.81l.73-7.72c2.07-21.92,13.28-50.59,27.85-69.04l23.1,53.36,24.92,57.28c1.12-.13,2.73-1.62,3.27-2.86l10.97-25.02,5.78-13.48,3.79-8.25,2.11-4.37c.6-1.23,21.75-1.2,26.98.61l-23.14,54.49c-5.32,12.52-7.84,23.25-17.69,31.13-9.6,7.68-24.93,1.84-30.84-11.4l-5.67-12.69-27.63-63.49c-1.69,2.26-2.46,4.5-2.78,7.09-2.05,16.37-2.58,39.6,1.56,55.2Z"/>
        <path class="cls-1" d="M369.17,191.53c-4.86,10.22-14.07,13.58-24.04,11.97-5.08-.82-11.44-5.82-14.02-11.59l13.91-30.96,5.36,9.98,24.19-56.42c8.91-.61,17.72-.55,28.28.09-10.8,26.54-21.63,51.53-33.69,76.92Z"/>
      </g>
      <g>
        <path class="cls-1" d="M516.68,360.76c-6.24,9.9-17.01,14.21-27.93,14.27l-31.94.17.11-62.69,33.86.35c8.75.09,17.64,3.98,23.41,10.7,8.75,10.18,9.86,25.54,2.5,37.2ZM502.24,343.49c-.07-8.19-5.15-14.36-13.15-15.14-4.25-.42-8.67-.35-13.33-.35l-.11,31.58c5.59,0,10.34.21,14.81-.51,7.82-1.27,11.84-7.68,11.77-15.57Z"/>
        <path class="cls-1" d="M588.24,364.27c-6.39,7.42-16.11,10.74-25.44,10.79l-31.81.17v-62.72s33.44.34,33.44.34c10.2.1,19.18,4.54,25.52,12.42,7.75,11.76,7.97,27.75-1.72,39ZM576.42,342.58c-.55-7.87-5.88-13.75-13.56-14.29-4.17-.29-7.98-.28-12.75-.31l-.17,31.61h11.11c9.34.01,16.07-7.16,15.38-17.01Z"/>
        <path class="cls-1" d="M736.87,358.76c-6.3,10.95-17.31,16.18-29.54,16.28l-31.06.26-.02-62.79,33.85.37c10.34.11,19.45,5.47,25.27,13.57,5.97,9.87,6.48,21.53,1.5,32.31ZM721.07,343.44c-.21-8.21-5.32-14.52-13.5-15.14-4.06-.31-8-.28-12.8-.31l-.11,31.45,10.16.24c9.38.22,16.51-6.26,16.25-16.24Z"/>
        <polygon class="cls-1" points="373.23 374.98 354.26 375.19 353.98 351.38 332.64 351.51 332.39 375.19 313.54 375.2 313.48 312.54 332.39 312.64 332.53 335.37 354.02 335.34 354.23 312.52 373.22 312.63 373.23 374.98"/>
        <path class="cls-1" d="M427.19,363.33h-24.62s-4.77,12.01-4.77,12.01l-19.42-.26,27.49-62.5,18.18-.05,27.64,62.48-19.77.36-4.73-12.03ZM421.22,348.76l-6.35-16.03-6.48,16.18,12.84-.14Z"/>
        <path class="cls-1" d="M646.27,363.4l-24.48-.16-5.05,11.95-19.25-.35,27.44-62.24,18.21-.05,27.54,62.33-19.55.54-4.85-12.01ZM640.25,348.82l-6.39-16.31-6.21,16.23,12.6.08Z"/>
        <g>
          <path class="cls-2" d="M84.2,313.09c2.55-.72,5.13-.64,7.98-.03l-20.86,62.01h-8.15s-17.13-49.72-17.13-49.72l-17.05,48.94c-1.99,1.47-6.22,1.26-8.5.26L0,313.26c2.62-.93,5.7-.94,8.33-.13l16.71,49.62,17.37-49.65c2.3-.62,5.13-.65,7.57-.24l17.17,49.95,17.05-49.73Z"/>
          <path class="cls-2" d="M266.2,359.13l-32.88-.11-7.11,15.42c-1.74,1.3-5.92,1.1-8.54-.09l27.86-60.99c1.81-1.17,5.79-1.15,8.21-.19l28.01,61.28c-2.94.87-5.61.97-8.43.7l-7.12-16.03ZM262.71,351.76l-13.07-29.14-13.08,29.26,26.15-.12Z"/>
          <path class="cls-2" d="M144.22,359.02l-33.2.09-6.75,15.81c-2.65.62-5.51.55-8.43-.65l27.82-60.97c2.13-1.13,5.82-1.07,8.18-.13l27.76,60.73c-1.75,1.72-5.84,1.79-8.37.89l-7-15.77ZM140.86,351.89l-13.15-29.38-13.1,29.3,26.25.08Z"/>
          <path class="cls-2" d="M208.75,342.06c2.06.01,1.81,7.08-.07,7.21l-29.87.23-.3,24.81c-2.19,1.35-6.17,1.12-8.1.27.34-3.2.63-5.53.63-8.51l-.02-53.52h42.32c.52,2.36.51,4.9.02,7.34l-34.62.07-.07,21.94,30.09.16Z"/>
        </g>
      </g>
      <path class="cls-1" d="M251.96,428.74l10.49-.05c-1.47-2.42-3.32-5.11-4.38-7.62-1.9-4.52,3.52-8.13,7.32-8.86,5.58-1.08,11.66-.48,14.42,5.2,1.53,3.15-1.19,7.06-3.18,10.66l11.26.02.03-14.73c1.21-.14,3.98-.22,6.18-.21l.17,14.84c3.07.3,6.22.35,9.81.06l-.39-24.62c1.28-.61,4-.64,5.46.35l.07,27.87c0,1.18-3.2,2.72-4.37,2.72l-72.61-.04-.2-6.05,13.23.3c.28-1.42.06-5.37-.94-7.11-2.43-4.23-10.44-2.19-10.51-4.96-.03-1.05.08-3.52.72-4.24s3.13.55,4.15.56c9.73.09,12.37,7.22,13.29,15.89ZM275.08,418.78c-5.08-.78-7.08-.73-11.69-.06l5.54,8.54,6.14-8.48Z"/>
      <path class="cls-2" d="M513.67,428.55l17.22-.1,2.7-.02c.53,0,.94-1.99.77-2.72-2.34-10.23-15.18-5.69-14.86-9.14.09-1.01.44-3.24.71-4.3.25-.95,3.35.77,4.54.65,8-.84,16.39,5.58,15.41,14.81,1.46.57,2.49.49,2.75,1.28.35,1.06-.05,4.2-.48,5.36h-65.06c-1.41.01-3.5-.32-4.05-1.14s-1.29-3.29-1.29-4.4l.09-25.52,6.08.11.08,25.27,8.54-.86.66-14.97c.24-1.93,6.03.03,6.46,1.2,4.34-3.07,18.98-3.12,19.11.12l.59,14.38ZM507.05,428.57l.28-10.68c-3.71.18-7.27.23-9.92.8-4.44.95-4.04,5.32-4.13,9.71l13.77.17Z"/>
      <path class="cls-2" d="M365.19,431.68l-.23-12.92c-.07-.97-4.2-.7-4.22.35l-.12,9.72c-.02,1.54-.65,4.16-1.7,4.72-2.41,1.28-14.67,1.86-18.83-2.15-3.65-3.52-2.76-10.16-.81-14.46,1.36-.2,5.04,1.48,4.93,2.69-.46,1.93-1.04,4.13-1.13,5.33s2.35,3.06,3.6,3.09l7.35.19c.4-5.06-.71-10.24,2.96-13.87,2.91-2.89,8.16-2.99,12.4-1.84,1.44.39,1.34,3.89,1.28,5.28l-.38,10.15,8.98.28c-.44-3.31-.69-8.98,1.77-12.54,3.26-4.71,18.29-6.3,18.34.99l.1,13.29c.01,1.76-2.27,4.43-4.2,4.43h-25.74c-1.24,0-4.36-1.52-4.38-2.72ZM393.13,428.11l-.11-9.57c-2.03-.26-6.21-.43-7.45,1.38-1.14,1.67-.53,5.11-.16,7.36l7.72.83Z"/>
      <path class="cls-2" d="M466.95,417.73c-2.45,8.74,3.45,16.61-4.49,16.62l-29.25.05c-.98,0-3.75-1.2-3.76-2.21l-.16-13.56c-2.6-.64-6.15-.72-8.35.94-2.04,1.53-1.69,7.43.43,8.19,1.78.64,4.18,1.13,4.57,2.29s-.56,5.1-1.81,4.83l-9.49-2.03c.12-5.27-.64-10.29.55-14.49,1.59-5.63,9.31-6.59,14.06-6.66,3.53-.05,5.75,1.82,5.79,5.06l.16,11.34c2.14.99,6.45.84,8.79-.36l.23-14.69,5.53.05.37,15.27c3.79.36,7.27.36,10.72-.08l.55-9.6c.08-1.38,5.24-1.64,5.56-.96Z"/>
      <path class="cls-1" d="M205.64,434.45c-7.56.11-1.8-9.48-4.92-15.13-1.37-2.48-6.46-1.31-7.73.46-1.48,2.06-2.17,6.61-.74,8.46l5.23.42.11,6.25-11.14-2.18c-.55-4.77-1.48-10.25.73-14.68,3.25-6.54,13.69-8.19,19-4.27.13,5.19-.02,10.06,1.1,14.69,4.63.4,8.77.29,13.36-.13l.33-14.32c.07-1.54,5.48-1.61,5.61-.13l-.11,20.25-20.81.3Z"/>
      <path class="cls-2" d="M554.31,433.31c0,1.51-5.82,1.53-6.31.14l.14-30.37c2.3-.09,4.46.03,6.36.49l-.19,29.74Z"/>
      <path class="cls-1" d="M320.57,434.13l-4.63.15.11-31.42,4.55.42c.85.08.03,2.26.03,3.3l-.06,27.55Z"/>
      <path class="cls-2" d="M459.5,411.09l8.18,1.73c-2.94,2.41-7.66,2.53-10.86.51.87-2.16,2.01-4.81,2.93-6.24s4.4-1.46,6-1.17c.44.08.96,2.17.52,2.23l-2.3.34c-1.42.21-2.91,1.15-4.47,2.59Z"/>
      <path class="cls-2" d="M353.18,438.04c1.01-.53,3.61.67,4.09,1.69.54,1.12-.43,3.56-1.73,4.46-1.03.7-3.19-.38-4.25-1.65-.81-.98.14-3.57,1.88-4.49Z"/>
      <path class="cls-1" d="M213.82,437.99c1.53-.52,3.37.71,3.77,2.09.51,1.74.26,3.4-1.39,3.88s-3.75-.22-4.25-1.33c-.65-1.48.25-4.08,1.86-4.63Z"/>
      <path class="cls-2" d="M524.38,403.06c1.26-.99,4.07-.27,4.89.98.62.95.25,2.74-.65,3.71-1,1.09-3.55,1.4-4.47.46s-.97-4.21.23-5.16Z"/>
      <path class="cls-2" d="M452.23,443.57c-1.48,1.32-3.65.86-4.64-.44-1.22-1.61-.24-3.76,1.79-4.79.93-.47,3.02.07,3.6.78.74.91.36,3.46-.75,4.45Z"/>
      <path class="cls-2" d="M442.82,438.06c.99-.29,3.03,1.67,3.14,2.71.14,1.21-1.53,3.37-2.71,3.7s-3.27-1.39-3.89-2.66c-.53-1.09,1.82-3.27,3.45-3.75Z"/>
      <path class="cls-2" d="M420.28,402.95c1.29-1.11,4.11.5,4.24,1.88.11,1.11-.61,3.05-1.42,3.84s-3.71-.14-4.5-1.11-.16-3.03,1.67-4.61Z"/>
      <path class="cls-1" d="M284.69,403.18c.84-1.26,4.09,0,4.75,1.08.6.98.64,3.07-.19,3.86s-3.86.8-4.73.06-1.14-3.02.17-5Z"/>
      <path class="cls-1" d="M199.92,402.98c1.07-1.03,4.21.25,4.5,1.51.25,1.09-.23,3.1-1.26,4.15-.79.81-2.92-.2-4.51-1.32-.93-.66-.81-2.36,1.26-4.33Z"/>
      <path class="cls-1" d="M222.31,438.15c1.14-.05,3.25,1.51,3.44,2.58s-1.19,3.19-2.23,3.53c-1.1.36-3.2-.48-3.67-1.46-.62-1.3.88-4.57,2.45-4.65Z"/>
      <path class="cls-2" d="M427.77,402.96c.79-.66,3.7-.22,4.22.66.63,1.06.39,3.78-.5,4.67s-3.7.43-4.58-.55c-.83-.92-.38-3.74.86-4.78Z"/>
      <path class="cls-2" d="M387.01,402.93c.83-.62,3.61.07,4.37.79.91.86.64,3.74-.46,4.67-.96.81-3.5.27-4.51-.69-.9-.86-.65-3.83.6-4.76Z"/>
      <path class="cls-1" d="M293.16,403.02c.8-.65,3.7-.31,4.23.57.63,1.06.36,3.72-.46,4.69s-3.76.49-4.54-.54c-.74-.98-.38-3.79.78-4.73Z"/>
      <path class="cls-1" d="M267.09,403.03c.98-.59,3.83-.23,4.43.6.71,1,.46,3.56-.45,4.56-.82.91-3.76.58-4.45-.43s-.56-4.11.48-4.74Z"/>
      <path class="cls-1" d="M236.89,402.96c.84-.91,3.65.16,4.65,1.3.73.83.33,2.66-.61,3.53-1.11,1.03-3.47,1.28-4.46.37s-.88-3.79.42-5.19Z"/>
      <path class="cls-1" d="M194.52,408.62c-2.59,1.32-4.89-2.32-3.66-4.72.54-1.06,3.45-1.55,4.38-.75,1.29,1.11,1.43,4.37-.73,5.47Z"/>
      <circle class="cls-2" cx="345.94" cy="441.23" r=".46"/>
      <g>
        <path class="cls-2" d="M191.69,504.58h-5.43l-21.84-32.75v32.75h-5.43v-41.18h5.43l21.84,32.69v-32.69h5.43v41.18Z"/>
        <path class="cls-2" d="M208.21,463.46v26.02c0,3.66.9,6.37,2.71,8.14s4.33,2.66,7.55,2.66,5.68-.89,7.49-2.66c1.81-1.77,2.72-4.48,2.72-8.14v-26.02h5.43v25.96c0,3.42-.7,6.3-2.09,8.64-1.39,2.34-3.27,4.08-5.64,5.22-2.37,1.14-5.02,1.71-7.97,1.71s-5.6-.57-7.97-1.71c-2.37-1.14-4.24-2.88-5.61-5.22-1.37-2.34-2.06-5.22-2.06-8.64v-25.96h5.43Z"/>
        <path class="cls-2" d="M270.75,463.46v4.37h-11.34v36.76h-5.43v-36.76h-11.4v-4.37h28.16Z"/>
        <path class="cls-2" d="M301.3,504.58l-9.91-16.82h-6.56v16.82h-5.43v-41.12h13.43c3.14,0,5.8.53,7.97,1.59,2.17,1.06,3.79,2.5,4.86,4.31,1.07,1.81,1.61,3.87,1.61,6.19,0,2.83-.83,5.33-2.48,7.49-1.65,2.16-4.13,3.6-7.43,4.31l10.44,17.23h-6.5ZM284.83,483.46h8c2.94,0,5.15-.72,6.62-2.15,1.47-1.44,2.21-3.35,2.21-5.75s-.73-4.33-2.18-5.66c-1.45-1.34-3.67-2.01-6.65-2.01h-8v15.58Z"/>
        <path class="cls-2" d="M323.08,463.46v41.12h-5.43v-41.12h5.43Z"/>
        <path class="cls-2" d="M342.59,502.31c-3.18-1.79-5.7-4.29-7.55-7.49-1.85-3.21-2.77-6.81-2.77-10.83s.93-7.62,2.77-10.83c1.85-3.21,4.37-5.7,7.55-7.49,3.18-1.79,6.7-2.68,10.56-2.68s7.44.9,10.62,2.68c3.18,1.79,5.69,4.28,7.52,7.46,1.83,3.19,2.75,6.81,2.75,10.86s-.92,7.67-2.75,10.86c-1.83,3.19-4.34,5.67-7.52,7.46-3.18,1.79-6.72,2.68-10.62,2.68s-7.38-.89-10.56-2.68ZM361,498.33c2.33-1.34,4.16-3.25,5.49-5.72,1.33-2.48,2-5.35,2-8.61s-.67-6.19-2-8.64c-1.33-2.46-3.15-4.36-5.46-5.69-2.31-1.34-4.93-2.01-7.88-2.01s-5.57.67-7.88,2.01c-2.31,1.34-4.13,3.24-5.46,5.69-1.33,2.46-2,5.34-2,8.64s.67,6.14,2,8.61c1.33,2.48,3.16,4.39,5.49,5.72,2.33,1.34,4.94,2.01,7.85,2.01s5.52-.67,7.85-2.01Z"/>
        <path class="cls-2" d="M415.87,504.58h-5.43l-21.84-32.75v32.75h-5.43v-41.18h5.43l21.84,32.69v-32.69h5.43v41.18Z"/>
        <path class="cls-2" d="M459.79,504.58h-5.43l-21.84-32.75v32.75h-5.43v-41.18h5.43l21.84,32.69v-32.69h5.43v41.18Z"/>
        <path class="cls-2" d="M476.44,463.46v41.12h-5.43v-41.12h5.43Z"/>
        <path class="cls-2" d="M493.47,503.55c-2.17-.96-3.87-2.3-5.1-4.01-1.23-1.71-1.87-3.69-1.91-5.93h5.79c.2,1.93,1,3.55,2.42,4.87,1.41,1.32,3.47,1.98,6.18,1.98s4.62-.64,6.12-1.92c1.49-1.28,2.24-2.92,2.24-4.93,0-1.57-.44-2.85-1.31-3.84-.88-.98-1.97-1.73-3.28-2.24-1.31-.51-3.08-1.06-5.31-1.65-2.74-.71-4.94-1.42-6.59-2.12-1.65-.71-3.06-1.82-4.24-3.33-1.17-1.51-1.76-3.55-1.76-6.11,0-2.24.58-4.23,1.73-5.96,1.15-1.73,2.77-3.07,4.86-4.01s4.49-1.42,7.19-1.42c3.9,0,7.09.96,9.58,2.89,2.49,1.93,3.89,4.48,4.21,7.67h-5.97c-.2-1.57-1.03-2.96-2.51-4.16-1.47-1.2-3.42-1.8-5.85-1.8-2.27,0-4.12.58-5.55,1.74-1.43,1.16-2.15,2.78-2.15,4.87,0,1.5.43,2.71,1.28,3.66.86.94,1.91,1.66,3.16,2.15,1.25.49,3.01,1.05,5.28,1.68,2.75.75,4.95,1.49,6.62,2.21,1.67.73,3.1,1.85,4.3,3.36,1.19,1.51,1.79,3.57,1.79,6.17,0,2.01-.54,3.89-1.61,5.66-1.07,1.77-2.67,3.21-4.77,4.31-2.11,1.1-4.59,1.65-7.46,1.65s-5.2-.48-7.37-1.45Z"/>
        <path class="cls-2" d="M550.25,463.46v4.37h-11.34v36.76h-5.43v-36.76h-11.4v-4.37h28.16Z"/>
        <path class="cls-2" d="M564.33,467.82v13.75h15.16v4.43h-15.16v14.16h16.95v4.43h-22.38v-41.18h22.38v4.43h-16.95Z"/>
      </g>
    </g>
  </g>
</svg>